name rise30.8019peak61.5557fall86.2505.mot
datacolumns 19
datarows 55
range 18.749932 18.839934
endheader
time	ground_force1_vx	ground_force1_vy	ground_force1_vz	ground_force1_px	ground_force1_py	ground_force1_pz	ground_force2_vx	ground_force2_vy	ground_force2_vz	ground_force2_px	ground_force2_py	ground_force2_pz	ground_torque1_x	ground_torque1_y	ground_torque1_z	ground_torque2_x	ground_torque2_y	ground_torque2_z	
18.749932	71.540783	612.559928	32.088948	0.284369	0.000000	0.101788	-30.403924	148.974397	4.610591	-0.062090	0.000000	-0.061964	0.000000	4.527842	0.000000	0.000000	-5.296691	0.000000	
18.751598	71.329449	618.073354	32.363888	0.282948	0.000000	0.101795	-28.362887	141.724283	4.793925	-0.063201	0.000000	-0.061789	0.000000	4.631157	0.000000	0.000000	-5.015432	0.000000	
18.753272	71.085630	623.508136	32.626667	0.281538	0.000000	0.101801	-26.334956	134.703824	4.959849	-0.064312	0.000000	-0.061611	0.000000	4.731845	0.000000	0.000000	-4.733963	0.000000	
18.754935	70.810766	628.862409	32.878343	0.280141	0.000000	0.101807	-24.322577	127.890921	5.106528	-0.065417	0.000000	-0.061427	0.000000	4.830402	0.000000	0.000000	-4.452280	0.000000	
18.756594	70.506294	634.134206	33.119970	0.278756	0.000000	0.101812	-22.329130	121.253905	5.231049	-0.066512	0.000000	-0.061237	0.000000	4.927315	0.000000	0.000000	-4.170364	0.000000	
18.758264	70.173638	639.321455	33.352598	0.277385	0.000000	0.101818	-20.359212	114.752371	5.329443	-0.067589	0.000000	-0.061040	0.000000	5.023057	0.000000	0.000000	-3.888230	0.000000	
18.759933	69.814206	644.421991	33.577260	0.276030	0.000000	0.101824	-18.418882	108.338945	5.396829	-0.068642	0.000000	-0.060834	0.000000	5.118087	0.000000	0.000000	-3.605975	0.000000	
18.761600	69.429384	649.433557	33.794970	0.274690	0.000000	0.101830	-16.515823	101.962007	5.427655	-0.069661	0.000000	-0.060617	0.000000	5.212846	0.000000	0.000000	-3.323836	0.000000	
18.763266	69.020530	654.353820	34.006718	0.273366	0.000000	0.101835	-14.659410	95.569334	5.416066	-0.070636	0.000000	-0.060389	0.000000	5.307753	0.000000	0.000000	-3.042259	0.000000	
18.764930	68.588972	659.180370	34.213458	0.272059	0.000000	0.101842	-12.860635	89.112519	5.356366	-0.071555	0.000000	-0.060145	0.000000	5.403207	0.000000	0.000000	-2.761950	0.000000	
18.766610	68.136001	663.910738	34.416108	0.270769	0.000000	0.101849	-11.131889	82.551894	5.243571	-0.072404	0.000000	-0.059885	0.000000	5.499581	0.000000	0.000000	-2.483932	0.000000	
18.768264	67.662866	668.542399	34.615545	0.269496	0.000000	0.101856	-9.486570	75.861615	5.073994	-0.073165	0.000000	-0.059604	0.000000	5.597220	0.000000	0.000000	-2.209581	0.000000	
18.769932	67.170777	673.072789	34.812597	0.268239	0.000000	0.101864	-7.938535	69.034415	4.845842	-0.073818	0.000000	-0.059299	0.000000	5.696443	0.000000	0.000000	-1.940640	0.000000	
18.771601	66.660894	677.499313	35.008040	0.267000	0.000000	0.101872	-6.501410	62.085496	4.559741	-0.074340	0.000000	-0.058965	0.000000	5.797538	0.000000	0.000000	-1.679211	0.000000	
18.773261	66.134330	681.819356	35.202593	0.265778	0.000000	0.101881	-5.187796	55.054994	4.219127	-0.074701	0.000000	-0.058598	0.000000	5.900761	0.000000	0.000000	-1.427706	0.000000	
18.774933	65.592148	686.030299	35.396919	0.264571	0.000000	0.101891	-4.008429	48.008443	3.830453	-0.074866	0.000000	-0.058190	0.000000	6.006337	0.000000	0.000000	-1.188764	0.000000	
18.776593	65.035357	690.129526	35.591616	0.263380	0.000000	0.101902	-2.971369	41.034842	3.403130	-0.074792	0.000000	-0.057735	0.000000	6.114457	0.000000	0.000000	-0.965129	0.000000	
18.778261	64.464913	694.114439	35.787216	0.262204	0.000000	0.101914	-2.081289	34.242047	2.949177	-0.074427	0.000000	-0.057222	0.000000	6.225280	0.000000	0.000000	-0.759494	0.000000	
18.779928	63.881719	697.982473	35.984186	0.261043	0.000000	0.101927	-1.338964	27.749598	2.482570	-0.073704	0.000000	-0.056640	0.000000	6.338928	0.000000	0.000000	-0.574323	0.000000	
18.781601	63.286623	701.731106	36.182923	0.259895	0.000000	0.101941	-0.741026	21.679469	2.018324	0.000000	0.000000	0.000000	0.000000	6.455492	0.000000	0.000000	-0.223766	0.000000	
18.783281	62.680417	705.357872	36.383753	0.258759	0.000000	0.101956	-0.280021	16.145732	1.571399	0.000000	0.000000	0.000000	0.000000	6.575026	0.000000	0.000000	-0.146165	0.000000	
18.784935	62.063841	708.860376	36.586930	0.257634	0.000000	0.101972	0.055213	11.244520	1.155579	0.000000	0.000000	0.000000	0.000000	6.697550	0.000000	0.000000	-0.082750	0.000000	
18.786602	61.437579	712.236305	36.792637	0.256520	0.000000	0.101990	0.278885	7.045726	0.782470	0.000000	0.000000	0.000000	0.000000	6.823051	0.000000	0.000000	-0.033098	0.000000	
18.788261	60.802266	715.483440	37.000984	0.255415	0.000000	0.102009	0.407399	3.587541	0.460748	0.000000	0.000000	0.000000	0.000000	6.951481	0.000000	0.000000	0.003650	0.000000	
18.789934	60.158484	718.599675	37.212010	0.254318	0.000000	0.102029	0.000000	0.000000	0.000000	0.000000	0.000000	0.000000	0.000000	7.082759	0.000000	0.000000	0.000000	0.000000	
18.791599	59.506764	721.583020	37.425683	0.253227	0.000000	0.102050	0.000000	0.000000	0.000000	0.000000	0.000000	0.000000	0.000000	7.216773	0.000000	0.000000	0.000000	0.000000	
18.793262	58.847593	724.431619	37.641900	0.252142	0.000000	0.102073	0.000000	0.000000	0.000000	0.000000	0.000000	0.000000	0.000000	7.353380	0.000000	0.000000	0.000000	0.000000	
18.794933	58.181410	727.143762	37.860490	0.251060	0.000000	0.102097	0.000000	0.000000	0.000000	0.000000	0.000000	0.000000	0.000000	7.492404	0.000000	0.000000	0.000000	0.000000	
18.796594	57.508613	729.717894	38.081216	0.249980	0.000000	0.102122	0.000000	0.000000	0.000000	0.000000	0.000000	0.000000	0.000000	7.633644	0.000000	0.000000	0.000000	0.000000	
18.798261	56.829558	732.152625	38.303776	0.248902	0.000000	0.102149	0.000000	0.000000	0.000000	0.000000	0.000000	0.000000	0.000000	7.776870	0.000000	0.000000	0.000000	0.000000	
18.799935	56.144563	734.446746	38.527807	0.247823	0.000000	0.102177	0.000000	0.000000	0.000000	0.000000	0.000000	0.000000	0.000000	7.921824	0.000000	0.000000	0.000000	0.000000	
18.801598	55.453914	736.599229	38.752886	0.246742	0.000000	0.102206	0.000000	0.000000	0.000000	0.000000	0.000000	0.000000	0.000000	8.068227	0.000000	0.000000	0.000000	0.000000	
18.803260	54.757862	738.609246	38.978535	0.245659	0.000000	0.102237	0.000000	0.000000	0.000000	0.000000	0.000000	0.000000	0.000000	8.215778	0.000000	0.000000	0.000000	0.000000	
18.804933	54.056632	740.476168	39.204225	0.244570	0.000000	0.102269	0.000000	0.000000	0.000000	0.000000	0.000000	0.000000	0.000000	8.364152	0.000000	0.000000	0.000000	0.000000	
18.806599	53.350422	742.199580	39.429377	0.243475	0.000000	0.102303	0.000000	0.000000	0.000000	0.000000	0.000000	0.000000	0.000000	8.513010	0.000000	0.000000	0.000000	0.000000	
18.808261	52.639410	743.779282	39.653370	0.242373	0.000000	0.102337	0.000000	0.000000	0.000000	0.000000	0.000000	0.000000	0.000000	8.661994	0.000000	0.000000	0.000000	0.000000	
18.809936	51.923753	745.215298	39.875541	0.241262	0.000000	0.102373	0.000000	0.000000	0.000000	0.000000	0.000000	0.000000	0.000000	8.810734	0.000000	0.000000	0.000000	0.000000	
18.811598	51.203595	746.507877	40.095194	0.240142	0.000000	0.102410	0.000000	0.000000	0.000000	0.000000	0.000000	0.000000	0.000000	8.958848	0.000000	0.000000	0.000000	0.000000	
18.813268	50.479066	747.657501	40.311602	0.239010	0.000000	0.102448	0.000000	0.000000	0.000000	0.000000	0.000000	0.000000	0.000000	9.105944	0.000000	0.000000	0.000000	0.000000	
18.814942	49.750290	748.664886	40.524011	0.237866	0.000000	0.102487	0.000000	0.000000	0.000000	0.000000	0.000000	0.000000	0.000000	9.251626	0.000000	0.000000	0.000000	0.000000	
18.816595	49.017382	749.530983	40.731648	0.236709	0.000000	0.102527	0.000000	0.000000	0.000000	0.000000	0.000000	0.000000	0.000000	9.395490	0.000000	0.000000	0.000000	0.000000	
18.818265	48.280460	750.256979	40.933725	0.235538	0.000000	0.102568	0.000000	0.000000	0.000000	0.000000	0.000000	0.000000	0.000000	9.537134	0.000000	0.000000	0.000000	0.000000	
18.819934	47.539638	750.844299	41.129442	0.234352	0.000000	0.102610	0.000000	0.000000	0.000000	0.000000	0.000000	0.000000	0.000000	9.676156	0.000000	0.000000	0.000000	0.000000	
18.821597	46.795037	751.294603	41.317996	0.233150	0.000000	0.102652	0.000000	0.000000	0.000000	0.000000	0.000000	0.000000	0.000000	9.812156	0.000000	0.000000	0.000000	0.000000	
18.823267	46.046784	751.609786	41.498584	0.231932	0.000000	0.102695	0.000000	0.000000	0.000000	0.000000	0.000000	0.000000	0.000000	9.944741	0.000000	0.000000	0.000000	0.000000	
18.824935	45.295014	751.791974	41.670406	0.230697	0.000000	0.102739	0.000000	0.000000	0.000000	0.000000	0.000000	0.000000	0.000000	10.073527	0.000000	0.000000	0.000000	0.000000	
18.826596	44.539876	751.843518	41.832676	0.229444	0.000000	0.102783	0.000000	0.000000	0.000000	0.000000	0.000000	0.000000	0.000000	10.198140	0.000000	0.000000	0.000000	0.000000	
18.828262	43.781532	751.766995	41.984622	0.228174	0.000000	0.102828	0.000000	0.000000	0.000000	0.000000	0.000000	0.000000	0.000000	10.318220	0.000000	0.000000	0.000000	0.000000	
18.829936	43.020160	751.565198	42.125495	0.226885	0.000000	0.102873	0.000000	0.000000	0.000000	0.000000	0.000000	0.000000	0.000000	10.433421	0.000000	0.000000	0.000000	0.000000	
18.831599	42.255957	751.241133	42.254567	0.225579	0.000000	0.102918	0.000000	0.000000	0.000000	0.000000	0.000000	0.000000	0.000000	10.543416	0.000000	0.000000	0.000000	0.000000	
18.833263	41.489137	750.798007	42.371147	0.224254	0.000000	0.102963	0.000000	0.000000	0.000000	0.000000	0.000000	0.000000	0.000000	10.647895	0.000000	0.000000	0.000000	0.000000	
18.834930	40.719938	750.239227	42.474572	0.222911	0.000000	0.103009	0.000000	0.000000	0.000000	0.000000	0.000000	0.000000	0.000000	10.746573	0.000000	0.000000	0.000000	0.000000	
18.836602	39.948617	749.568387	42.564224	0.221550	0.000000	0.103054	0.000000	0.000000	0.000000	0.000000	0.000000	0.000000	0.000000	10.839185	0.000000	0.000000	0.000000	0.000000	
18.838266	39.175456	748.789260	42.639525	0.220172	0.000000	0.103098	0.000000	0.000000	0.000000	0.000000	0.000000	0.000000	0.000000	10.925492	0.000000	0.000000	0.000000	0.000000	
18.839934	38.400759	747.905788	42.699945	0.218776	0.000000	0.103143	0.000000	0.000000	0.000000	0.000000	0.000000	0.000000	0.000000	11.005280	0.000000	0.000000	0.000000	0.000000	
